<svg xmlns="http://www.w3.org/2000/svg" width="1440" height="1358" viewBox="0 0 1440 1358">
  <g stroke="#d9b45b" fill="none" stroke-width="2">
    <path d="M 131,689 C 75,849 361,1166 496,1227 C 631,1289 818,1197 941,1058 C 1064,920 1208,538 1233,394 C 1258,251 1156,220 1089,198 C 1023,176 992,181 832,263 C 672,344 187,528 131,689 Z" opacity="0.55" stroke-width="2.5"/>
    <g opacity="0.9">
    <line x1="239" y1="687" x2="322" y2="693"/>
    <line x1="322" y1="693" x2="539" y2="589"/>
    <line x1="539" y1="589" x2="804" y2="367"/>
    <line x1="804" y1="367" x2="1024" y2="283"/>
    <line x1="1024" y1="283" x2="1139" y2="447"/>
    <line x1="1139" y1="447" x2="1049" y2="504"/>
    <line x1="1049" y1="504" x2="901" y2="726"/>
    <line x1="901" y1="726" x2="739" y2="790"/>
    <line x1="739" y1="790" x2="461" y2="969"/>
    <line x1="461" y1="969" x2="537" y2="1127"/>
    <line x1="901" y1="726" x2="886" y2="965"/>
    </g>
    <g fill="#d9b45b" stroke="none" opacity="0.85">
    <circle cx="239" cy="687" r="5"/>
    <circle cx="322" cy="693" r="5"/>
    <circle cx="539" cy="589" r="5"/>
    <circle cx="804" cy="367" r="5"/>
    <circle cx="1024" cy="283" r="5"/>
    <circle cx="1139" cy="447" r="5"/>
    <circle cx="1049" cy="504" r="5"/>
    <circle cx="901" cy="726" r="5"/>
    <circle cx="739" cy="790" r="5"/>
    <circle cx="461" cy="969" r="5"/>
    <circle cx="537" cy="1127" r="5"/>
    <circle cx="886" cy="965" r="5"/>
    </g>
  </g>
</svg>
