<svg xmlns="http://www.w3.org/2000/svg" width="1587" height="1383" viewBox="0 0 1587 1383">
  <g stroke="#d9b45b" fill="none" stroke-width="2">
    <path d="M 110,338 C 104,469 398,812 545,967 C 692,1122 903,1217 993,1268 C 1083,1319 1063,1300 1085,1273 C 1108,1247 1107,1238 1127,1109 C 1147,981 1203,617 1204,501 C 1204,385 1232,467 1128,414 C 1024,362 749,198 580,185 C 410,172 116,208 110,338 Z" opacity="0.55" stroke-width="2.5"/>
    <g opacity="0.9">
    <line x1="957" y1="1166" x2="1037" y2="1177"/>
    <line x1="1037" y1="1177" x2="1059" y2="1025"/>
    <line x1="1059" y1="1025" x2="1034" y2="869"/>
    <line x1="1034" y1="869" x2="939" y2="781"/>
    <line x1="939" y1="781" x2="912" y2="592"/>
    <line x1="912" y1="592" x2="872" y2="579"/>
    <line x1="872" y1="579" x2="797" y2="520"/>
    <line x1="797" y1="520" x2="690" y2="381"/>
    <line x1="690" y1="381" x2="622" y2="284"/>
    <line x1="622" y1="284" x2="629" y2="404"/>
    <line x1="629" y1="404" x2="707" y2="527"/>
    <line x1="707" y1="527" x2="702" y2="701"/>
    <line x1="702" y1="701" x2="686" y2="843"/>
    <line x1="686" y1="843" x2="706" y2="894"/>
    <line x1="706" y1="894" x2="661" y2="920"/>
    <line x1="661" y1="920" x2="617" y2="887"/>
    <line x1="617" y1="887" x2="628" y2="837"/>
    <line x1="628" y1="837" x2="686" y2="843"/>
    <line x1="1045" y1="483" x2="1106" y2="547"/>
    <line x1="1106" y1="547" x2="1071" y2="578"/>
    <line x1="1071" y1="578" x2="912" y2="592"/>
    <line x1="707" y1="527" x2="557" y2="527"/>
    <line x1="557" y1="527" x2="206" y2="388"/>
    </g>
    <g fill="#d9b45b" stroke="none" opacity="0.85">
    <circle cx="957" cy="1166" r="5"/>
    <circle cx="1037" cy="1177" r="5"/>
    <circle cx="1059" cy="1025" r="5"/>
    <circle cx="1034" cy="869" r="5"/>
    <circle cx="939" cy="781" r="5"/>
    <circle cx="912" cy="592" r="5"/>
    <circle cx="872" cy="579" r="5"/>
    <circle cx="797" cy="520" r="5"/>
    <circle cx="690" cy="381" r="5"/>
    <circle cx="622" cy="284" r="5"/>
    <circle cx="629" cy="404" r="5"/>
    <circle cx="707" cy="527" r="5"/>
    <circle cx="702" cy="701" r="5"/>
    <circle cx="686" cy="843" r="5"/>
    <circle cx="706" cy="894" r="5"/>
    <circle cx="661" cy="920" r="5"/>
    <circle cx="617" cy="887" r="5"/>
    <circle cx="628" cy="837" r="5"/>
    <circle cx="1045" cy="483" r="5"/>
    <circle cx="1106" cy="547" r="5"/>
    <circle cx="1071" cy="578" r="5"/>
    <circle cx="557" cy="527" r="5"/>
    <circle cx="206" cy="388" r="5"/>
    </g>
  </g>
</svg>
