<svg xmlns="http://www.w3.org/2000/svg" width="1265" height="1149" viewBox="0 0 1265 1149">
  <g stroke="#d9b45b" fill="none" stroke-width="2">
    <path d="M 82,769 C 67,715 -64,861 99,746 C 263,632 882,152 1063,82 C 1243,13 1328,164 1183,328 C 1038,492 376,993 192,1067 C 9,1140 98,822 82,769 Z" opacity="0.55" stroke-width="2.5"/>
    <g opacity="0.9">
    <line x1="1083" y1="368" x2="669" y2="529"/>
    <line x1="669" y1="529" x2="622" y2="547"/>
    <line x1="622" y1="547" x2="563" y2="554"/>
    <line x1="563" y1="554" x2="584" y2="502"/>
    <line x1="584" y1="502" x2="620" y2="456"/>
    <line x1="620" y1="456" x2="986" y2="158"/>
    <line x1="563" y1="554" x2="435" y2="639"/>
    <line x1="435" y1="639" x2="201" y2="710"/>
    <line x1="201" y1="710" x2="449" y2="820"/>
    <line x1="201" y1="710" x2="183" y2="729"/>
    <line x1="183" y1="729" x2="257" y2="980"/>
    </g>
    <g fill="#d9b45b" stroke="none" opacity="0.85">
    <circle cx="1083" cy="368" r="5"/>
    <circle cx="669" cy="529" r="5"/>
    <circle cx="622" cy="547" r="5"/>
    <circle cx="563" cy="554" r="5"/>
    <circle cx="584" cy="502" r="5"/>
    <circle cx="620" cy="456" r="5"/>
    <circle cx="986" cy="158" r="5"/>
    <circle cx="435" cy="639" r="5"/>
    <circle cx="201" cy="710" r="5"/>
    <circle cx="449" cy="820" r="5"/>
    <circle cx="183" cy="729" r="5"/>
    <circle cx="257" cy="980" r="5"/>
    </g>
  </g>
</svg>
